<mxfile host="app.diagrams.net" modified="2023-10-19T09:48:38.942Z" agent="Mozilla/5.0 (Macintosh; Intel Mac OS X 10_15_7) AppleWebKit/537.36 (KHTML, like Gecko) Chrome/118.0.0.0 Safari/537.36" etag="PDNznbBmBQqusfiBx_xT" version="22.0.4" type="github">
  <diagram name="Page-1" id="o5hz4H7m-j1h4hEm1t5j">
    <mxGraphModel dx="1010" dy="676" grid="1" gridSize="10" guides="1" tooltips="1" connect="1" arrows="1" fold="1" page="1" pageScale="1" pageWidth="827" pageHeight="1169" math="0" shadow="0">
      <root>
        <mxCell id="0" />
        <mxCell id="1" parent="0" />
        <mxCell id="VwIXzhcZRjuWHptlfzh--3" value="Pending Request List" style="text;html=1;align=center;verticalAlign=middle;resizable=0;points=[];autosize=1;strokeColor=none;fillColor=none;" vertex="1" parent="1">
          <mxGeometry x="370" y="40" width="140" height="30" as="geometry" />
        </mxCell>
        <mxCell id="VwIXzhcZRjuWHptlfzh--5" value="" style="edgeStyle=orthogonalEdgeStyle;rounded=0;orthogonalLoop=1;jettySize=auto;html=1;" edge="1" parent="1" source="VwIXzhcZRjuWHptlfzh--4" target="VwIXzhcZRjuWHptlfzh--3">
          <mxGeometry relative="1" as="geometry" />
        </mxCell>
        <mxCell id="VwIXzhcZRjuWHptlfzh--4" value="/v1/provisioning/requests&lt;span style=&quot;font-size: medium; text-align: start;&quot;&gt;&lt;/span&gt;" style="text;html=1;align=center;verticalAlign=middle;resizable=0;points=[];autosize=1;strokeColor=none;fillColor=none;" vertex="1" parent="1">
          <mxGeometry x="160" y="40" width="160" height="30" as="geometry" />
        </mxCell>
        <mxCell id="VwIXzhcZRjuWHptlfzh--9" value="" style="edgeStyle=orthogonalEdgeStyle;rounded=0;orthogonalLoop=1;jettySize=auto;html=1;" edge="1" parent="1" source="VwIXzhcZRjuWHptlfzh--6" target="VwIXzhcZRjuWHptlfzh--8">
          <mxGeometry relative="1" as="geometry" />
        </mxCell>
        <mxCell id="VwIXzhcZRjuWHptlfzh--6" value="/v1/provisioning/responses" style="text;html=1;align=center;verticalAlign=middle;resizable=0;points=[];autosize=1;strokeColor=none;fillColor=none;" vertex="1" parent="1">
          <mxGeometry x="149" y="79" width="170" height="30" as="geometry" />
        </mxCell>
        <mxCell id="VwIXzhcZRjuWHptlfzh--8" value="GetResponseList" style="text;html=1;align=left;verticalAlign=middle;resizable=0;points=[];autosize=1;strokeColor=none;fillColor=none;" vertex="1" parent="1">
          <mxGeometry x="390" y="79" width="120" height="30" as="geometry" />
        </mxCell>
        <mxCell id="VwIXzhcZRjuWHptlfzh--10" value="&lt;div style=&quot;font-size: 11px;&quot;&gt;&lt;font style=&quot;font-size: 11px;&quot;&gt;3. request=GET url_path=/v1/provisioning/requests/customers/100029458/edges/EDGE012085&lt;/font&gt;&lt;/div&gt;&lt;div style=&quot;font-size: 11px;&quot;&gt;&lt;br&gt;&lt;/div&gt;" style="text;html=1;align=center;verticalAlign=middle;resizable=0;points=[];autosize=1;strokeColor=none;fillColor=none;" vertex="1" parent="1">
          <mxGeometry x="109" y="406" width="490" height="40" as="geometry" />
        </mxCell>
        <mxCell id="VwIXzhcZRjuWHptlfzh--13" value="&lt;span lang=&quot;EN-GB&quot; style=&quot;font-size:8.0pt;font-family:AppleSystemUIFont;&lt;br/&gt;mso-fareast-font-family:Calibri;mso-fareast-theme-font:minor-latin;mso-bidi-font-family:&lt;br/&gt;AppleSystemUIFont;mso-font-kerning:0pt;mso-ansi-language:EN-GB;mso-fareast-language:&lt;br/&gt;EN-US;mso-bidi-language:AR-SA&quot;&gt;1. request=GET url_path=/&lt;span style=&quot;background:&lt;br/&gt;yellow;mso-highlight:yellow&quot;&gt;v1/provisioning/responses&lt;/span&gt;&lt;/span&gt;" style="text;whiteSpace=wrap;html=1;" vertex="1" parent="1">
          <mxGeometry x="115" y="314" width="250" height="40" as="geometry" />
        </mxCell>
        <mxCell id="VwIXzhcZRjuWHptlfzh--15" value="&lt;span lang=&quot;EN-GB&quot; style=&quot;font-size:8.0pt;font-family:AppleSystemUIFont;&lt;br/&gt;mso-fareast-font-family:Calibri;mso-fareast-theme-font:minor-latin;mso-bidi-font-family:&lt;br/&gt;AppleSystemUIFont;mso-font-kerning:0pt;mso-ansi-language:EN-GB;mso-fareast-language:&lt;br/&gt;EN-US;mso-bidi-language:AR-SA&quot;&gt;&lt;span style=&quot;mso-spacerun:yes&quot;&gt;2.&amp;nbsp;&lt;/span&gt;request=GET url_path&lt;span style=&quot;background:&lt;br/&gt;yellow;mso-highlight:yellow&quot;&gt;=/v1/provisioning/requests&lt;/span&gt;&lt;/span&gt;" style="text;whiteSpace=wrap;html=1;" vertex="1" parent="1">
          <mxGeometry x="120" y="360" width="245" height="40" as="geometry" />
        </mxCell>
        <mxCell id="VwIXzhcZRjuWHptlfzh--16" value="&lt;span lang=&quot;EN-US&quot; style=&quot;font-size:8.0pt;font-family:&amp;quot;Calibri&amp;quot;,sans-serif;&lt;br/&gt;mso-ascii-theme-font:minor-latin;mso-fareast-font-family:Calibri;mso-fareast-theme-font:&lt;br/&gt;minor-latin;mso-hansi-theme-font:minor-latin;mso-bidi-font-family:&amp;quot;Times New Roman&amp;quot;;&lt;br/&gt;mso-bidi-theme-font:minor-bidi;mso-ansi-language:EN-US;mso-fareast-language:&lt;br/&gt;EN-US;mso-bidi-language:AR-SA&quot;&gt;4. request=GET url_path=/v1/provisioning/responses&lt;/span&gt;" style="text;whiteSpace=wrap;html=1;" vertex="1" parent="1">
          <mxGeometry x="120" y="450" width="270" height="40" as="geometry" />
        </mxCell>
      </root>
    </mxGraphModel>
  </diagram>
</mxfile>
